<svg width="22" height="18" viewBox="0 0 22 18" fill="none" xmlns="http://www.w3.org/2000/svg">
<path d="M20.6338 1.40114C20.8683 1.65832 21 2.00694 21 2.37043C21 2.73391 20.8683 3.08254 20.6338 3.33972L8.53095 16.5989C8.29619 16.8557 7.97797 17 7.64619 17C7.3144 17 6.99618 16.8557 6.76142 16.5989L1.33599 10.6551C1.11495 10.3949 0.994584 10.051 1.00019 9.69564C1.00579 9.34026 1.13693 9.0011 1.36604 8.74945C1.59575 8.49845 1.90533 8.35479 2.22972 8.34865C2.5541 8.34251 2.86803 8.47437 3.10552 8.71653L7.64619 13.691L18.8643 1.40114C19.0991 1.14428 19.4173 1 19.7491 1C20.0809 1 20.3991 1.14428 20.6338 1.40114Z" fill="white" stroke="white"/>
</svg>
