<svg width="20" height="20" viewBox="0 0 20 21" fill="none" xmlns="http://www.w3.org/2000/svg">
<path d="M10 18.874C8.14348 18.874 6.36301 18.1416 5.05025 16.838C3.7375 15.5344 3 13.7663 3 11.9227C3 10.0791 3.7375 8.31096 5.05025 7.00733C6.36301 5.7037 8.14348 4.97133 10 4.97133C11.8565 4.97133 13.637 5.7037 14.9497 7.00733C16.2625 8.31096 17 10.0791 17 11.9227C17 13.7663 16.2625 15.5344 14.9497 16.838C13.637 18.1416 11.8565 18.874 10 18.874ZM10 2.98523C7.61305 2.98523 5.32387 3.92685 3.63604 5.60295C1.94821 7.27904 1 9.55231 1 11.9227C1 14.293 1.94821 16.5663 3.63604 18.2424C5.32387 19.9185 7.61305 20.8601 10 20.8601C12.3869 20.8601 14.6761 19.9185 16.364 18.2424C18.0518 16.5663 19 14.293 19 11.9227C19 9.55231 18.0518 7.27904 16.364 5.60295C14.6761 3.92685 12.3869 2.98523 10 2.98523ZM10.5 6.95743H9V12.9157L13.75 15.7459L14.5 14.5245L10.5 12.1709V6.95743ZM5.88 2.37947L4.6 0.860107L0 4.68334L1.29 6.20271L5.88 2.37947ZM20 4.69327L15.4 0.860107L14.11 2.37947L18.71 6.21264L20 4.69327Z" fill="#fff"/>
</svg>
